PathFileType	4	(X/Y/Z)	s06c0101.trc
DataRate	CameraRate	NumFrames	NumMarkers	Units	OrigDataRate	OrigDataStartFrame	OrigNumFrames
200	200	6	49	mm	200	1250	2000
Frame#	Time	racr			lacr			c7			jug			rlel			rdr			llel			ldr			s2			lic			ric			lasi			rasi			rpsi			lpsi			rgt			lgt			rth1			rth2			rth3			rth4			rlfc			rmfc			rsh1			rsh2			rsh3			rsh4			rlmal			rmmal			rcal			rtoe			rmt5			lth1			lth2			lth4			lth3			llfc			lmfc			llmal			lcal			lmt5			lsh1			lsh2			lsh3			lsh4			ltoe			SBIKE			LBIKE			RBIKE			
		X1	Y1	Z1	X2	Y2	Z2	X3	Y3	Z3	X4	Y4	Z4	X5	Y5	Z5	X6	Y6	Z6	X7	Y7	Z7	X8	Y8	Z8	X9	Y9	Z9	X10	Y10	Z10	X11	Y11	Z11	X12	Y12	Z12	X13	Y13	Z13	X14	Y14	Z14	X15	Y15	Z15	X16	Y16	Z16	X17	Y17	Z17	X18	Y18	Z18	X19	Y19	Z19	X20	Y20	Z20	X21	Y21	Z21	X22	Y22	Z22	X23	Y23	Z23	X24	Y24	Z24	X25	Y25	Z25	X26	Y26	Z26	X27	Y27	Z27	X28	Y28	Z28	X29	Y29	Z29	X30	Y30	Z30	X31	Y31	Z31	X32	Y32	Z32	X33	Y33	Z33	X34	Y34	Z34	X35	Y35	Z35	X36	Y36	Z36	X37	Y37	Z37	X38	Y38	Z38	X39	Y39	Z39	X40	Y40	Z40	X41	Y41	Z41	X42	Y42	Z42	X43	Y43	Z43	X44	Y44	Z44	X45	Y45	Z45	X46	Y46	Z46	X47	Y47	Z47	X48	Y48	Z48	X49	Y49	Z49	
1250	6.2500	511.814331	1262.325695	-84.354099	503.037513	1245.229905	-373.106297	505.719586	1324.504298	-235.123920	478.450521	1159.182447	-228.425918	520.970205	1030.696716	44.647866	712.912503	921.196777	-49.065072	467.871174	994.550128	-457.275957	693.322615	933.167884	-410.214752	-52.203392	1169.797734	-193.801193	96.961934	1154.403693	-373.898281	99.570382	1124.288950	-39.935747	114.285037	1105.387782	-336.553596	126.742851	1088.813229	-84.473090	-15.586339	1208.782405	-163.117330	-22.265293	1208.362366	-225.615622	63.234072	1028.535172	-23.419401	83.812824	1125.237089	-395.634878	141.307563	916.379448	-20.733715	200.151353	849.276125	-35.419302	217.426415	764.727272	-48.243788	229.817578	867.939923	-49.278512	240.716557	663.066060	-67.149341	223.237824	644.877362	-179.705032	200.590872	549.824655	-41.082746	186.812793	465.627483	-62.530106	136.091671	394.881127	-62.228977	206.247800	461.789600	-97.725356	95.217214	327.388539	-68.728535	128.327208	307.479155	-157.746979	34.302218	343.908115	-113.763265	209.264752	128.735515	-99.877377	126.567955	189.261321	-37.684054	155.609699	1043.478543	-411.927240	241.452888	1029.354548	-405.078205	255.297897	1059.113486	-386.736512	310.675856	972.196329	-406.338481	391.151330	886.572469	-377.355411	391.045646	867.574978	-258.744634	220.755422	543.059849	-383.153325	144.277987	513.457083	-336.727564	334.578590	466.413236	-412.265384	351.227236	785.224606	-400.937393	330.741091	701.548107	-387.284547	274.688268	634.888964	-396.662357	354.188578	691.778172	-356.920978	421.436244	468.454573	-354.826248	-204.970015	868.499974	-220.512840	-50.460513	79.950943	-420.205450	-50.485982	79.741990	-22.813487	
1251	6.2550	511.486609	1260.953013	-83.166068	503.011294	1245.772027	-372.129219	505.291180	1323.984617	-233.491488	478.611891	1158.514558	-227.794701	520.479988	1029.870800	46.719397	712.535494	921.054598	-48.314894	467.396722	994.890517	-456.699947	692.862788	933.232216	-409.961788	-50.888273	1167.954231	-194.306747	96.887738	1153.276561	-373.515581	98.687346	1123.704047	-38.600883	114.605952	1104.699073	-335.858421	126.155856	1088.329931	-83.040043	-16.752399	1208.556039	-162.898438	-22.718675	1207.495315	-225.496611	62.541084	1028.350447	-22.540214	83.340171	1122.802143	-395.506419	143.087340	917.874274	-21.161700	203.506889	851.851383	-36.495569	223.047612	767.931291	-48.669389	232.412358	871.374304	-50.384875	246.660103	666.450860	-68.187071	229.392650	648.414666	-180.403794	202.936116	553.835775	-41.652166	186.528249	470.295706	-62.849706	133.499017	401.053937	-62.609368	205.935005	465.698487	-97.971247	90.638636	334.826727	-68.894617	122.229439	313.810418	-157.544614	29.853838	352.514086	-113.926658	200.599967	133.970831	-99.758787	119.093144	196.097951	-37.734962	154.649990	1038.720768	-411.347283	240.092484	1022.601968	-404.162277	254.747167	1052.531322	-386.749387	308.075288	964.175678	-405.258261	386.856890	877.911672	-376.111381	387.206833	858.079162	-257.982643	224.563887	531.060819	-382.859872	148.873212	499.380849	-336.918758	340.983194	459.158276	-412.487548	348.577086	775.878920	-400.153462	330.224383	691.642446	-386.816042	275.744624	623.729643	-396.264178	354.054321	682.337817	-356.643220	427.765902	464.155110	-354.990354	-204.925080	868.403129	-220.475917	-50.471469	79.887146	-420.192996	-50.461726	79.618248	-22.797427	
1252	6.2600	511.055117	1259.635893	-82.070311	503.091891	1246.356701	-371.286360	504.914277	1323.532084	-231.869914	478.720156	1157.936836	-227.238303	520.386052	1029.052559	48.742320	712.384810	920.962360	-47.416364	467.126135	995.233839	-455.847232	692.466484	933.182460	-409.774751	-52.184815	1166.956147	-193.639761	96.815331	1151.739967	-373.183573	97.333261	1122.857483	-38.083903	114.949376	1103.593509	-335.244125	124.923796	1087.456878	-82.428956	-17.901574	1207.559149	-162.657559	-24.181569	1206.526709	-224.177004	62.171369	1028.084440	-21.565392	82.845378	1119.947297	-395.375868	145.175140	919.243437	-21.530084	207.176465	855.280419	-36.217142	228.534933	771.272707	-49.064825	235.292149	874.891399	-51.478415	252.705684	669.720799	-69.006536	235.014694	651.947878	-181.979244	205.283777	558.077507	-42.178286	186.506048	475.181914	-63.016534	131.343973	407.459567	-62.866110	205.777462	469.675162	-98.257446	86.491751	342.588753	-68.882591	117.449916	320.860456	-157.507381	25.792439	361.402865	-113.925126	192.511141	139.756256	-99.666659	112.090660	203.396856	-37.689375	153.781793	1033.775720	-410.851187	238.905953	1015.706029	-403.639257	254.183077	1045.778082	-386.791047	305.560296	955.871459	-404.348530	382.518003	868.545368	-375.232196	385.001846	847.729175	-257.654386	228.636438	519.254580	-382.544766	153.833965	485.390187	-336.557147	346.973482	451.432818	-412.616329	346.154747	765.864432	-399.696823	329.813451	681.372518	-386.189640	277.043081	612.125891	-395.681177	354.050735	672.448017	-356.128555	433.532499	458.922911	-355.107076	-204.870583	868.320722	-220.400344	-50.471879	79.819345	-420.198731	-50.467194	79.589976	-22.776558	
1253	6.2650	510.480107	1258.442749	-81.120291	503.192292	1247.114989	-370.405277	504.516572	1323.177052	-230.286750	478.719634	1157.477748	-226.754229	520.492068	1028.330838	50.702799	711.760762	920.784768	-46.420438	466.974298	995.580588	-455.175863	692.050124	933.028757	-409.564555	-53.036011	1165.750315	-193.171320	96.790629	1149.758190	-372.968563	96.346228	1121.676692	-37.496203	115.216707	1101.950773	-334.812360	123.912281	1086.162585	-81.768414	-19.332545	1206.067511	-162.322285	-25.129077	1204.937874	-223.503373	62.132557	1027.716765	-20.377281	82.341451	1116.750078	-395.324253	147.476069	920.696235	-21.814475	210.738117	857.837060	-37.534613	234.440255	774.650090	-49.135149	238.350363	878.333343	-52.420617	258.574206	672.902950	-69.810189	241.130952	655.058907	-182.284481	208.188183	562.319560	-42.538329	186.818457	480.174739	-63.384492	129.751033	413.872755	-63.123930	205.885393	473.911070	-98.562532	82.626972	350.567731	-68.829258	113.098279	328.389639	-157.374253	22.602883	370.012243	-114.163055	184.867789	146.041649	-99.632067	105.597810	211.017151	-37.585411	153.006002	1028.625121	-410.436078	237.707200	1008.916530	-403.093122	253.812958	1038.966090	-386.977346	303.104673	947.839902	-403.589967	378.265746	859.131432	-375.025923	380.292815	836.014869	-258.490663	232.929313	507.672406	-382.140902	159.135283	471.926956	-335.639988	352.725999	443.286434	-412.553728	343.780116	755.511302	-399.177430	329.529371	670.694269	-385.304097	278.558344	600.259841	-394.842267	354.191900	662.469499	-355.481708	439.311881	452.703726	-355.213665	-204.803889	868.265881	-220.303359	-50.458766	79.788219	-420.164673	-50.491370	79.519237	-22.745641	
1254	6.2700	509.949668	1257.551178	-80.152749	503.374800	1247.819483	-369.614621	504.119655	1322.925158	-228.634221	478.878710	1157.108249	-226.047635	520.697942	1027.897955	52.582808	711.128157	920.836409	-45.414120	466.888858	995.896079	-454.593570	691.607835	932.833440	-409.447400	-53.890257	1164.054299	-192.674524	96.873038	1147.439877	-372.834673	95.368090	1120.347109	-37.013286	115.566183	1100.026597	-334.387113	122.894437	1084.704154	-81.209339	-20.583122	1204.340726	-161.931987	-25.855630	1203.329596	-223.032985	62.325946	1027.270091	-19.120346	81.913720	1113.149287	-395.285190	149.968236	922.110149	-22.052288	214.491773	860.525330	-38.354496	239.136476	777.979481	-49.854260	241.488342	881.596743	-53.293754	264.409982	676.159540	-70.263229	247.119191	658.035568	-182.457303	211.483693	566.666565	-42.800998	187.048835	485.141961	-63.916932	128.452232	420.552073	-63.241861	206.349286	478.057755	-99.081410	79.219349	358.930791	-68.597668	109.359557	336.187574	-157.172135	19.324272	379.511693	-113.977849	177.812280	152.744113	-99.475245	99.608122	219.051403	-37.516725	152.309926	1023.427890	-410.138656	236.619782	1002.195926	-402.624793	253.335296	1032.142011	-386.928599	301.089783	939.740236	-402.489614	374.051772	849.301056	-374.819350	375.603161	825.746889	-259.982229	237.303568	496.104430	-381.474632	163.762620	458.914142	-335.139753	358.102473	434.669793	-412.348175	341.414704	744.938817	-398.575133	329.368985	659.908475	-384.342161	280.243182	588.232000	-393.778526	354.378180	652.352765	-354.638182	444.644242	445.691495	-355.245374	-204.751901	868.220652	-220.185924	-50.460454	79.723542	-420.113485	-50.503028	79.466808	-22.685303	
1255	6.2750	509.276421	1256.787935	-79.264398	503.506731	1248.524991	-368.867395	503.774386	1322.778962	-227.194852	478.729997	1156.906504	-225.479418	521.000169	1027.636365	54.312731	710.630479	920.866912	-44.715635	466.792524	996.186659	-454.259162	691.174411	932.699654	-409.358842	-54.480579	1162.058686	-191.781192	97.117645	1144.859912	-372.788474	94.643266	1118.659577	-36.886973	116.039889	1097.738524	-334.162403	121.741106	1082.617061	-81.026531	-21.653111	1202.416702	-161.515548	-26.665367	1201.230819	-222.317627	62.708057	1026.747551	-17.598754	81.601909	1109.351628	-395.348964	152.494357	923.294080	-22.302155	218.351312	863.248336	-38.820693	244.610119	781.094631	-50.121228	244.663611	884.756892	-53.994393	270.280943	679.339571	-70.459525	252.765810	661.023289	-182.476080	215.186661	570.864799	-43.348802	188.118759	490.219529	-64.226510	127.640194	427.400014	-63.393861	206.865348	482.762173	-99.521463	76.231259	367.611276	-68.411960	105.929730	344.361204	-157.029527	16.439281	389.513511	-113.593878	171.350348	160.057396	-99.502675	94.169217	227.498016	-37.459078	151.742674	1018.214218	-409.949288	235.728674	995.685156	-402.074607	252.917509	1025.419332	-386.860165	298.987649	932.289731	-401.819611	369.970093	839.290770	-374.793036	371.755746	815.795997	-258.702481	241.584461	484.530325	-380.331473	168.580633	446.364854	-334.425316	363.059938	425.550437	-412.151281	338.985753	734.195431	-397.620120	329.287368	648.962808	-383.552827	281.971916	575.850047	-392.419359	354.451641	642.270565	-353.930976	449.621412	437.941887	-355.448780	-204.718793	868.147733	-220.013652	-50.476074	79.693822	-420.071184	-50.499482	79.416799	-22.660184	
